<svg xmlns="http://www.w3.org/2000/svg" x="0px" y="0px" width="64" height="64" viewBox="0 0 64 64">
<linearGradient id="DX6gnioWzWRuDtm~ivP7ba_79072_gr1" x1="22.271" x2="22.271" y1="31" y2="37.483" gradientUnits="userSpaceOnUse" spreadMethod="reflect"><stop offset="0" stop-color="#6dc7ff"></stop><stop offset="1" stop-color="#e6abff"></stop></linearGradient><path fill="url(#DX6gnioWzWRuDtm~ivP7ba_79072_gr1)" d="M19.957 37.483L21.5 35.828 21.5 32.655 26 32.655 24.457 31 19.957 31 18.543 32.655 19.957 32.655z"></path><linearGradient id="DX6gnioWzWRuDtm~ivP7bb_79072_gr2" x1="21.5" x2="21.5" y1="31" y2="39" gradientUnits="userSpaceOnUse" spreadMethod="reflect"><stop offset="0" stop-color="#6dc7ff"></stop><stop offset="1" stop-color="#e6abff"></stop></linearGradient><path fill="url(#DX6gnioWzWRuDtm~ivP7bb_79072_gr2)" d="M17 32.655L17 37.483 18.543 39 24.457 39 26 37.483 26 35.828 26 34.172 24.457 34.172 23.043 34.172 21.5 35.828 24.457 35.828 24.457 37.483 19.957 37.483 18.543 37.483 18.543 32.655 18.543 31z"></path><linearGradient id="DX6gnioWzWRuDtm~ivP7bc_79072_gr3" x1="21.5" x2="21.5" y1="9.125" y2="54.459" gradientUnits="userSpaceOnUse" spreadMethod="reflect"><stop offset="0" stop-color="#1a6dff"></stop><stop offset="1" stop-color="#c822ff"></stop></linearGradient><path fill="url(#DX6gnioWzWRuDtm~ivP7bc_79072_gr3)" d="M30,43H13V27h17V43z M15,41h13V29H15V41z"></path><linearGradient id="DX6gnioWzWRuDtm~ivP7bd_79072_gr4" x1="32" x2="32" y1="9.583" y2="54.778" gradientUnits="userSpaceOnUse" spreadMethod="reflect"><stop offset="0" stop-color="#1a6dff"></stop><stop offset="1" stop-color="#c822ff"></stop></linearGradient><path fill="url(#DX6gnioWzWRuDtm~ivP7bd_79072_gr4)" d="M54.466,9.115c-0.329-0.173-0.726-0.15-1.032,0.06l-3.813,2.615l-3.86-2.618 c-0.341-0.229-0.788-0.229-1.126,0.003l-3.813,2.615l-3.861-2.618c-0.341-0.229-0.788-0.229-1.126,0.003l-3.813,2.615l-3.86-2.618 c-0.341-0.229-0.788-0.229-1.126,0.003l-3.813,2.615l-3.861-2.618c-0.341-0.229-0.788-0.229-1.126,0.003l-3.813,2.615l-3.86-2.618 c-0.307-0.208-0.702-0.228-1.029-0.056C9.205,9.29,9,9.63,9,10v41.902C9,53.61,10.346,55,12,55h31c0.265,0,0.52-0.105,0.707-0.293 l11-11C54.895,43.52,55,43.266,55,43V10C55,9.629,54.794,9.288,54.466,9.115z M11,51.902V11.886l2.864,1.942 c0.34,0.229,0.787,0.229,1.126-0.003l3.813-2.615l3.861,2.618c0.34,0.229,0.787,0.229,1.126-0.003l3.813-2.615l3.86,2.618 c0.34,0.229,0.787,0.229,1.126-0.003l3.813-2.615l3.861,2.618c0.34,0.229,0.787,0.229,1.126-0.003l3.813-2.615l3.86,2.618 c0.34,0.229,0.787,0.229,1.126-0.003L53,11.898V42H42v11H12C11.449,53,11,52.508,11,51.902z M51.586,44L44,51.586V44H51.586z"></path><linearGradient id="DX6gnioWzWRuDtm~ivP7be_79072_gr5" x1="32" x2="32" y1="9.583" y2="54.778" gradientUnits="userSpaceOnUse" spreadMethod="reflect"><stop offset="0" stop-color="#1a6dff"></stop><stop offset="1" stop-color="#c822ff"></stop></linearGradient><path fill="url(#DX6gnioWzWRuDtm~ivP7be_79072_gr5)" d="M51,16H13v7h38V16z M49,21H15v-3h34V21z"></path><linearGradient id="DX6gnioWzWRuDtm~ivP7bf_79072_gr6" x1="41.5" x2="41.5" y1="9.583" y2="54.778" gradientUnits="userSpaceOnUse" spreadMethod="reflect"><stop offset="0" stop-color="#1a6dff"></stop><stop offset="1" stop-color="#c822ff"></stop></linearGradient><path fill="url(#DX6gnioWzWRuDtm~ivP7bf_79072_gr6)" d="M33 27H50V29H33z"></path><linearGradient id="DX6gnioWzWRuDtm~ivP7bg_79072_gr7" x1="41.5" x2="41.5" y1="9.583" y2="54.778" gradientUnits="userSpaceOnUse" spreadMethod="reflect"><stop offset="0" stop-color="#1a6dff"></stop><stop offset="1" stop-color="#c822ff"></stop></linearGradient><path fill="url(#DX6gnioWzWRuDtm~ivP7bg_79072_gr7)" d="M33 32H50V34H33z"></path><linearGradient id="DX6gnioWzWRuDtm~ivP7bh_79072_gr8" x1="41.5" x2="41.5" y1="9.583" y2="54.778" gradientUnits="userSpaceOnUse" spreadMethod="reflect"><stop offset="0" stop-color="#1a6dff"></stop><stop offset="1" stop-color="#c822ff"></stop></linearGradient><path fill="url(#DX6gnioWzWRuDtm~ivP7bh_79072_gr8)" d="M33 37H50V39H33z"></path><linearGradient id="DX6gnioWzWRuDtm~ivP7bi_79072_gr9" x1="21.5" x2="21.5" y1="9.583" y2="54.778" gradientUnits="userSpaceOnUse" spreadMethod="reflect"><stop offset="0" stop-color="#1a6dff"></stop><stop offset="1" stop-color="#c822ff"></stop></linearGradient><path fill="url(#DX6gnioWzWRuDtm~ivP7bi_79072_gr9)" d="M13 45H30V47H13z"></path><linearGradient id="DX6gnioWzWRuDtm~ivP7bj_79072_gr10" x1="36.5" x2="36.5" y1="9.583" y2="54.778" gradientUnits="userSpaceOnUse" spreadMethod="reflect"><stop offset="0" stop-color="#1a6dff"></stop><stop offset="1" stop-color="#c822ff"></stop></linearGradient><path fill="url(#DX6gnioWzWRuDtm~ivP7bj_79072_gr10)" d="M33 42H40V44H33z"></path><linearGradient id="DX6gnioWzWRuDtm~ivP7bk_79072_gr11" x1="36.5" x2="36.5" y1="9.583" y2="54.778" gradientUnits="userSpaceOnUse" spreadMethod="reflect"><stop offset="0" stop-color="#1a6dff"></stop><stop offset="1" stop-color="#c822ff"></stop></linearGradient><path fill="url(#DX6gnioWzWRuDtm~ivP7bk_79072_gr11)" d="M33 46H40V48H33z"></path>
</svg>